<?xml version="1.0" encoding="UTF-8"?>
<svg id="Layer_1" data-name="Layer 1" xmlns="http://www.w3.org/2000/svg" viewBox="0 0 1920 1080">
  <defs>
    <style>
      .cls-1 {
        stroke-dasharray: 4.99 4.99;
      }

      .cls-1, .cls-2, .cls-3, .cls-4, .cls-5, .cls-6 {
        fill: none;
        stroke-miterlimit: 10;
      }

      .cls-1, .cls-6 {
        stroke: #6d6e70;
      }

      .cls-2 {
        stroke-dasharray: 4.97 4.97;
      }

      .cls-2, .cls-3, .cls-4, .cls-5 {
        stroke: #fff;
      }

      .cls-3 {
        stroke-dasharray: 5.04 5.04;
      }

      .cls-7, .cls-8 {
        fill: #fff;
      }

      .cls-8 {
        font-family: Gluon-Bold, Gluon;
        font-size: 182.84px;
        font-weight: 700;
        letter-spacing: -.1em;
      }

      .cls-5 {
        stroke-dasharray: 5 5;
      }

      .cls-9 {
        fill: #929497;
      }
    </style>
  </defs>
  <rect x="120.56" y="113.18" width="1619.18" height="847.21" rx="37.19" ry="37.19"/>
  <g>
    <g>
      <g>
        <g>
          <line class="cls-6" x1="412.26" y1="265.97" x2="413.33" y2="268.23"/>
          <line class="cls-1" x1="415.46" y1="272.74" x2="563.55" y2="586.51"/>
          <line class="cls-6" x1="564.62" y1="588.76" x2="565.69" y2="591.02"/>
        </g>
        <line class="cls-4" x1="469.3" y1="591.02" x2="344.02" y2="308.98"/>
        <polyline class="cls-4" points="266.85 858.77 424.07 489.12 468.39 384.92 500.69 308.98"/>
        <polyline class="cls-4" points="453.36 267.88 433.72 311.47 389.13 410.48 187.23 858.77"/>
        <path class="cls-7" d="M472.05,411.81l-33.77,80.6,45.51,108.24h-90.81l-24.4,58.33h135.18l48.32,108.81h84.89l-164.93-355.98Z"/>
      </g>
      <g>
        <line class="cls-4" x1="225.08" y1="306.79" x2="227.58" y2="306.79"/>
        <line class="cls-2" x1="232.54" y1="306.79" x2="488.26" y2="306.79"/>
        <line class="cls-4" x1="490.74" y1="306.79" x2="493.24" y2="306.79"/>
      </g>
      <g>
        <line class="cls-4" x1="376.26" y1="384.26" x2="373.76" y2="384.26"/>
        <line class="cls-3" x1="368.72" y1="384.26" x2="230.1" y2="384.26"/>
        <line class="cls-4" x1="227.58" y1="384.26" x2="225.08" y2="384.26"/>
      </g>
      <path class="cls-4" d="M575.81,491.65c0-47.36-36.99-86.65-84.23-89.44"/>
      <g>
        <path class="cls-4" d="M518.22,307.54c.82.14,1.64.29,2.46.44"/>
        <path class="cls-5" d="M525.58,308.96c85.93,18.32,147.53,93.99,147.53,182.69,0,55.62-24.26,107.49-66.75,143.12"/>
        <path class="cls-4" d="M604.44,636.36c-.64.53-1.29,1.05-1.95,1.57"/>
      </g>
      <path class="cls-9" d="M515.58,322.86l-23.07,63.81c55.05,3.27,98.85,49.09,98.85,104.97,0,27.11-10.32,51.84-27.27,70.5l28.72,63.6c39.45-31.36,64.74-79.78,64.74-134.1,0-84.65-61.38-154.89-141.98-168.78Z"/>
    </g>
    <text class="cls-8" transform="translate(750.1 466.92)"><tspan x="0" y="0">PULSE </tspan><tspan x="0" y="219.41">ARCHITECTS</tspan></text>
  </g>
</svg>