<?xml version="1.0" encoding="UTF-8"?>
<svg id="Layer_1" data-name="Layer 1" xmlns="http://www.w3.org/2000/svg" viewBox="0 0 1252.25 1070.03">
  <defs>
    <style>
      .cls-1 {
        stroke-dasharray: 4.96 4.96;
      }

      .cls-1, .cls-2, .cls-3, .cls-4, .cls-5, .cls-6 {
        fill: none;
        stroke-miterlimit: 10;
      }

      .cls-1, .cls-6 {
        stroke: #6d6e70;
      }

      .cls-7 {
        fill: #fff;
      }

      .cls-2, .cls-3, .cls-4, .cls-5 {
        stroke: #fff;
      }

      .cls-3 {
        stroke-dasharray: 5.02 5.02;
      }

      .cls-4 {
        stroke-dasharray: 5.01 5.01;
      }

      .cls-5 {
        stroke-dasharray: 4.95 4.95;
      }

      .cls-8 {
        fill: #929497;
      }
    </style>
  </defs>
  <rect x="181.04" y="90.74" width="890.17" height="888.54" rx="37.19" ry="37.19"/>
  <g>
    <g>
      <g>
        <line class="cls-6" x1="561.87" y1="250.99" x2="562.94" y2="253.25"/>
        <line class="cls-1" x1="565.06" y1="257.73" x2="720.65" y2="587.4"/>
        <line class="cls-6" x1="721.71" y1="589.64" x2="722.78" y2="591.9"/>
      </g>
      <line class="cls-2" x1="621.69" y1="591.9" x2="490.3" y2="296.1"/>
      <polyline class="cls-2" points="409.37 872.71 574.26 485.02 620.74 375.75 654.61 296.1"/>
      <polyline class="cls-2" points="604.98 252.99 584.37 298.71 537.62 402.55 325.86 872.71"/>
      <path class="cls-7" d="M624.57,403.94l-35.42,84.53,47.73,113.52h-95.24l-25.59,61.17h141.78l50.68,114.12h89.03l-172.97-373.35Z"/>
    </g>
    <g>
      <line class="cls-2" x1="365.56" y1="293.8" x2="368.06" y2="293.8"/>
      <line class="cls-3" x1="373.08" y1="293.8" x2="641.79" y2="293.8"/>
      <line class="cls-2" x1="644.3" y1="293.8" x2="646.8" y2="293.8"/>
    </g>
    <g>
      <line class="cls-2" x1="524.11" y1="375.05" x2="521.61" y2="375.05"/>
      <line class="cls-5" x1="516.66" y1="375.05" x2="370.53" y2="375.05"/>
      <line class="cls-2" x1="368.06" y1="375.05" x2="365.56" y2="375.05"/>
    </g>
    <path class="cls-2" d="M733.4,487.67c0-49.67-38.8-90.87-88.33-93.81"/>
    <g>
      <path class="cls-2" d="M673,294.59c.82.14,1.64.29,2.46.44"/>
      <path class="cls-4" d="M680.37,296c90.3,19.09,155.08,98.53,155.08,191.67,0,58.41-25.51,112.88-70.19,150.25"/>
      <path class="cls-2" d="M763.33,639.52c-.65.53-1.29,1.05-1.95,1.57"/>
    </g>
    <path class="cls-8" d="M670.23,310.66l-24.19,66.92c57.74,3.43,103.68,51.48,103.68,110.09,0,28.43-10.82,54.37-28.6,73.94l30.12,66.71c41.37-32.89,67.9-83.67,67.9-140.64,0-88.78-64.37-162.45-148.91-177.02Z"/>
  </g>
</svg>